%TF.GenerationSoftware,KiCad,Pcbnew,7.0.9*%
%TF.CreationDate,2025-07-28T09:11:42-04:00*%
%TF.ProjectId,bb8DomeNeopixels,62623844-6f6d-4654-9e65-6f706978656c,rev?*%
%TF.SameCoordinates,Original*%
%TF.FileFunction,AssemblyDrawing,Top*%
%FSLAX46Y46*%
G04 Gerber Fmt 4.6, Leading zero omitted, Abs format (unit mm)*
G04 Created by KiCad (PCBNEW 7.0.9) date 2025-07-28 09:11:42*
%MOMM*%
%LPD*%
G01*
G04 APERTURE LIST*
%ADD10C,0.150000*%
G04 APERTURE END LIST*
D10*
X140368095Y-85241366D02*
X140415714Y-85193747D01*
X140415714Y-85193747D02*
X140510952Y-85146128D01*
X140510952Y-85146128D02*
X140701428Y-85241366D01*
X140701428Y-85241366D02*
X140796666Y-85193747D01*
X140796666Y-85193747D02*
X140844285Y-85146128D01*
X139868095Y-86122319D02*
X139868095Y-86931842D01*
X139868095Y-86931842D02*
X139915714Y-87027080D01*
X139915714Y-87027080D02*
X139963333Y-87074700D01*
X139963333Y-87074700D02*
X140058571Y-87122319D01*
X140058571Y-87122319D02*
X140249047Y-87122319D01*
X140249047Y-87122319D02*
X140344285Y-87074700D01*
X140344285Y-87074700D02*
X140391904Y-87027080D01*
X140391904Y-87027080D02*
X140439523Y-86931842D01*
X140439523Y-86931842D02*
X140439523Y-86122319D01*
X140820476Y-86122319D02*
X141487142Y-86122319D01*
X141487142Y-86122319D02*
X141058571Y-87122319D01*
X124891904Y-73843633D02*
X124844285Y-73891252D01*
X124844285Y-73891252D02*
X124749047Y-73938871D01*
X124749047Y-73938871D02*
X124558571Y-73843633D01*
X124558571Y-73843633D02*
X124463333Y-73891252D01*
X124463333Y-73891252D02*
X124415714Y-73938871D01*
X125391904Y-72962680D02*
X125391904Y-72153157D01*
X125391904Y-72153157D02*
X125344285Y-72057919D01*
X125344285Y-72057919D02*
X125296666Y-72010300D01*
X125296666Y-72010300D02*
X125201428Y-71962680D01*
X125201428Y-71962680D02*
X125010952Y-71962680D01*
X125010952Y-71962680D02*
X124915714Y-72010300D01*
X124915714Y-72010300D02*
X124868095Y-72057919D01*
X124868095Y-72057919D02*
X124820476Y-72153157D01*
X124820476Y-72153157D02*
X124820476Y-72962680D01*
X123868095Y-72962680D02*
X124344285Y-72962680D01*
X124344285Y-72962680D02*
X124391904Y-72486490D01*
X124391904Y-72486490D02*
X124344285Y-72534109D01*
X124344285Y-72534109D02*
X124249047Y-72581728D01*
X124249047Y-72581728D02*
X124010952Y-72581728D01*
X124010952Y-72581728D02*
X123915714Y-72534109D01*
X123915714Y-72534109D02*
X123868095Y-72486490D01*
X123868095Y-72486490D02*
X123820476Y-72391252D01*
X123820476Y-72391252D02*
X123820476Y-72153157D01*
X123820476Y-72153157D02*
X123868095Y-72057919D01*
X123868095Y-72057919D02*
X123915714Y-72010300D01*
X123915714Y-72010300D02*
X124010952Y-71962680D01*
X124010952Y-71962680D02*
X124249047Y-71962680D01*
X124249047Y-71962680D02*
X124344285Y-72010300D01*
X124344285Y-72010300D02*
X124391904Y-72057919D01*
X156368095Y-85236366D02*
X156415714Y-85188747D01*
X156415714Y-85188747D02*
X156510952Y-85141128D01*
X156510952Y-85141128D02*
X156701428Y-85236366D01*
X156701428Y-85236366D02*
X156796666Y-85188747D01*
X156796666Y-85188747D02*
X156844285Y-85141128D01*
X155391905Y-86117319D02*
X155391905Y-86926842D01*
X155391905Y-86926842D02*
X155439524Y-87022080D01*
X155439524Y-87022080D02*
X155487143Y-87069700D01*
X155487143Y-87069700D02*
X155582381Y-87117319D01*
X155582381Y-87117319D02*
X155772857Y-87117319D01*
X155772857Y-87117319D02*
X155868095Y-87069700D01*
X155868095Y-87069700D02*
X155915714Y-87022080D01*
X155915714Y-87022080D02*
X155963333Y-86926842D01*
X155963333Y-86926842D02*
X155963333Y-86117319D01*
X156963333Y-87117319D02*
X156391905Y-87117319D01*
X156677619Y-87117319D02*
X156677619Y-86117319D01*
X156677619Y-86117319D02*
X156582381Y-86260176D01*
X156582381Y-86260176D02*
X156487143Y-86355414D01*
X156487143Y-86355414D02*
X156391905Y-86403033D01*
X157582381Y-86117319D02*
X157677619Y-86117319D01*
X157677619Y-86117319D02*
X157772857Y-86164938D01*
X157772857Y-86164938D02*
X157820476Y-86212557D01*
X157820476Y-86212557D02*
X157868095Y-86307795D01*
X157868095Y-86307795D02*
X157915714Y-86498271D01*
X157915714Y-86498271D02*
X157915714Y-86736366D01*
X157915714Y-86736366D02*
X157868095Y-86926842D01*
X157868095Y-86926842D02*
X157820476Y-87022080D01*
X157820476Y-87022080D02*
X157772857Y-87069700D01*
X157772857Y-87069700D02*
X157677619Y-87117319D01*
X157677619Y-87117319D02*
X157582381Y-87117319D01*
X157582381Y-87117319D02*
X157487143Y-87069700D01*
X157487143Y-87069700D02*
X157439524Y-87022080D01*
X157439524Y-87022080D02*
X157391905Y-86926842D01*
X157391905Y-86926842D02*
X157344286Y-86736366D01*
X157344286Y-86736366D02*
X157344286Y-86498271D01*
X157344286Y-86498271D02*
X157391905Y-86307795D01*
X157391905Y-86307795D02*
X157439524Y-86212557D01*
X157439524Y-86212557D02*
X157487143Y-86164938D01*
X157487143Y-86164938D02*
X157582381Y-86117319D01*
X156891904Y-73838633D02*
X156844285Y-73886252D01*
X156844285Y-73886252D02*
X156749047Y-73933871D01*
X156749047Y-73933871D02*
X156558571Y-73838633D01*
X156558571Y-73838633D02*
X156463333Y-73886252D01*
X156463333Y-73886252D02*
X156415714Y-73933871D01*
X157868094Y-72957680D02*
X157868094Y-72148157D01*
X157868094Y-72148157D02*
X157820475Y-72052919D01*
X157820475Y-72052919D02*
X157772856Y-72005300D01*
X157772856Y-72005300D02*
X157677618Y-71957680D01*
X157677618Y-71957680D02*
X157487142Y-71957680D01*
X157487142Y-71957680D02*
X157391904Y-72005300D01*
X157391904Y-72005300D02*
X157344285Y-72052919D01*
X157344285Y-72052919D02*
X157296666Y-72148157D01*
X157296666Y-72148157D02*
X157296666Y-72957680D01*
X156296666Y-71957680D02*
X156868094Y-71957680D01*
X156582380Y-71957680D02*
X156582380Y-72957680D01*
X156582380Y-72957680D02*
X156677618Y-72814823D01*
X156677618Y-72814823D02*
X156772856Y-72719585D01*
X156772856Y-72719585D02*
X156868094Y-72671966D01*
X155344285Y-71957680D02*
X155915713Y-71957680D01*
X155629999Y-71957680D02*
X155629999Y-72957680D01*
X155629999Y-72957680D02*
X155725237Y-72814823D01*
X155725237Y-72814823D02*
X155820475Y-72719585D01*
X155820475Y-72719585D02*
X155915713Y-72671966D01*
X140891904Y-73843633D02*
X140844285Y-73891252D01*
X140844285Y-73891252D02*
X140749047Y-73938871D01*
X140749047Y-73938871D02*
X140558571Y-73843633D01*
X140558571Y-73843633D02*
X140463333Y-73891252D01*
X140463333Y-73891252D02*
X140415714Y-73938871D01*
X141391904Y-72962680D02*
X141391904Y-72153157D01*
X141391904Y-72153157D02*
X141344285Y-72057919D01*
X141344285Y-72057919D02*
X141296666Y-72010300D01*
X141296666Y-72010300D02*
X141201428Y-71962680D01*
X141201428Y-71962680D02*
X141010952Y-71962680D01*
X141010952Y-71962680D02*
X140915714Y-72010300D01*
X140915714Y-72010300D02*
X140868095Y-72057919D01*
X140868095Y-72057919D02*
X140820476Y-72153157D01*
X140820476Y-72153157D02*
X140820476Y-72962680D01*
X140201428Y-72534109D02*
X140296666Y-72581728D01*
X140296666Y-72581728D02*
X140344285Y-72629347D01*
X140344285Y-72629347D02*
X140391904Y-72724585D01*
X140391904Y-72724585D02*
X140391904Y-72772204D01*
X140391904Y-72772204D02*
X140344285Y-72867442D01*
X140344285Y-72867442D02*
X140296666Y-72915061D01*
X140296666Y-72915061D02*
X140201428Y-72962680D01*
X140201428Y-72962680D02*
X140010952Y-72962680D01*
X140010952Y-72962680D02*
X139915714Y-72915061D01*
X139915714Y-72915061D02*
X139868095Y-72867442D01*
X139868095Y-72867442D02*
X139820476Y-72772204D01*
X139820476Y-72772204D02*
X139820476Y-72724585D01*
X139820476Y-72724585D02*
X139868095Y-72629347D01*
X139868095Y-72629347D02*
X139915714Y-72581728D01*
X139915714Y-72581728D02*
X140010952Y-72534109D01*
X140010952Y-72534109D02*
X140201428Y-72534109D01*
X140201428Y-72534109D02*
X140296666Y-72486490D01*
X140296666Y-72486490D02*
X140344285Y-72438871D01*
X140344285Y-72438871D02*
X140391904Y-72343633D01*
X140391904Y-72343633D02*
X140391904Y-72153157D01*
X140391904Y-72153157D02*
X140344285Y-72057919D01*
X140344285Y-72057919D02*
X140296666Y-72010300D01*
X140296666Y-72010300D02*
X140201428Y-71962680D01*
X140201428Y-71962680D02*
X140010952Y-71962680D01*
X140010952Y-71962680D02*
X139915714Y-72010300D01*
X139915714Y-72010300D02*
X139868095Y-72057919D01*
X139868095Y-72057919D02*
X139820476Y-72153157D01*
X139820476Y-72153157D02*
X139820476Y-72343633D01*
X139820476Y-72343633D02*
X139868095Y-72438871D01*
X139868095Y-72438871D02*
X139915714Y-72486490D01*
X139915714Y-72486490D02*
X140010952Y-72534109D01*
X124368095Y-85241366D02*
X124415714Y-85193747D01*
X124415714Y-85193747D02*
X124510952Y-85146128D01*
X124510952Y-85146128D02*
X124701428Y-85241366D01*
X124701428Y-85241366D02*
X124796666Y-85193747D01*
X124796666Y-85193747D02*
X124844285Y-85146128D01*
X123868095Y-86122319D02*
X123868095Y-86931842D01*
X123868095Y-86931842D02*
X123915714Y-87027080D01*
X123915714Y-87027080D02*
X123963333Y-87074700D01*
X123963333Y-87074700D02*
X124058571Y-87122319D01*
X124058571Y-87122319D02*
X124249047Y-87122319D01*
X124249047Y-87122319D02*
X124344285Y-87074700D01*
X124344285Y-87074700D02*
X124391904Y-87027080D01*
X124391904Y-87027080D02*
X124439523Y-86931842D01*
X124439523Y-86931842D02*
X124439523Y-86122319D01*
X125344285Y-86455652D02*
X125344285Y-87122319D01*
X125106190Y-86074700D02*
X124868095Y-86788985D01*
X124868095Y-86788985D02*
X125487142Y-86788985D01*
M02*
