%TF.GenerationSoftware,KiCad,Pcbnew,7.0.9*%
%TF.CreationDate,2025-07-28T09:11:42-04:00*%
%TF.ProjectId,bb8DomeNeopixels,62623844-6f6d-4654-9e65-6f706978656c,rev?*%
%TF.SameCoordinates,Original*%
%TF.FileFunction,Copper,L1,Top*%
%TF.FilePolarity,Positive*%
%FSLAX46Y46*%
G04 Gerber Fmt 4.6, Leading zero omitted, Abs format (unit mm)*
G04 Created by KiCad (PCBNEW 7.0.9) date 2025-07-28 09:11:42*
%MOMM*%
%LPD*%
G01*
G04 APERTURE LIST*
G04 Aperture macros list*
%AMRoundRect*
0 Rectangle with rounded corners*
0 $1 Rounding radius*
0 $2 $3 $4 $5 $6 $7 $8 $9 X,Y pos of 4 corners*
0 Add a 4 corners polygon primitive as box body*
4,1,4,$2,$3,$4,$5,$6,$7,$8,$9,$2,$3,0*
0 Add four circle primitives for the rounded corners*
1,1,$1+$1,$2,$3*
1,1,$1+$1,$4,$5*
1,1,$1+$1,$6,$7*
1,1,$1+$1,$8,$9*
0 Add four rect primitives between the rounded corners*
20,1,$1+$1,$2,$3,$4,$5,0*
20,1,$1+$1,$4,$5,$6,$7,0*
20,1,$1+$1,$6,$7,$8,$9,0*
20,1,$1+$1,$8,$9,$2,$3,0*%
G04 Aperture macros list end*
%TA.AperFunction,SMDPad,CuDef*%
%ADD10RoundRect,0.600000X-2.525000X0.000000X2.525000X0.000000X2.525000X0.000000X-2.525000X0.000000X0*%
%TD*%
%TA.AperFunction,SMDPad,CuDef*%
%ADD11RoundRect,0.600000X2.525000X0.000000X-2.525000X0.000000X-2.525000X0.000000X2.525000X0.000000X0*%
%TD*%
%TA.AperFunction,ComponentPad*%
%ADD12R,1.700000X1.700000*%
%TD*%
%TA.AperFunction,ComponentPad*%
%ADD13O,1.700000X1.700000*%
%TD*%
%TA.AperFunction,ViaPad*%
%ADD14C,2.700000*%
%TD*%
%TA.AperFunction,ViaPad*%
%ADD15C,0.800000*%
%TD*%
%TA.AperFunction,Conductor*%
%ADD16C,0.700000*%
%TD*%
G04 APERTURE END LIST*
D10*
%TO.P,U7,1,3V_in*%
%TO.N,Net-(U4-3V_out)*%
X136755000Y-72167500D03*
%TO.P,U7,2,G_out*%
%TO.N,Net-(U4-G_in)*%
X136755000Y-74167500D03*
%TO.P,U7,3,Input*%
%TO.N,Net-(U4-Output)*%
X136755000Y-76167500D03*
%TO.P,U7,4,3V_out*%
%TO.N,Net-(U10-3V_in)*%
X144505000Y-72167500D03*
%TO.P,U7,5,G_in*%
%TO.N,Net-(U10-G_out)*%
X144505000Y-74167500D03*
%TO.P,U7,6,Output*%
%TO.N,Net-(U10-Input)*%
X144505000Y-76167500D03*
%TD*%
D11*
%TO.P,U5,1,3V_in*%
%TO.N,Net-(U5-3V_in)*%
X128505000Y-86917500D03*
%TO.P,U5,2,G_out*%
%TO.N,Net-(U5-G_out)*%
X128505000Y-84917500D03*
%TO.P,U5,3,Input*%
%TO.N,Net-(U5-Input)*%
X128505000Y-82917500D03*
%TO.P,U5,4,3V_out*%
%TO.N,unconnected-(U5-3V_out-Pad4)*%
X120755000Y-86917500D03*
%TO.P,U5,5,G_in*%
%TO.N,unconnected-(U5-G_in-Pad5)*%
X120755000Y-84917500D03*
%TO.P,U5,6,Output*%
%TO.N,unconnected-(U5-Output-Pad6)*%
X120755000Y-82917500D03*
%TD*%
D10*
%TO.P,U10,1,3V_in*%
%TO.N,Net-(U10-3V_in)*%
X152755000Y-72162500D03*
%TO.P,U10,2,G_out*%
%TO.N,Net-(U10-G_out)*%
X152755000Y-74162500D03*
%TO.P,U10,3,Input*%
%TO.N,Net-(U10-Input)*%
X152755000Y-76162500D03*
%TO.P,U10,4,3V_out*%
%TO.N,Net-(U10-3V_out)*%
X160505000Y-72162500D03*
%TO.P,U10,5,G_in*%
%TO.N,Net-(U10-G_in)*%
X160505000Y-74162500D03*
%TO.P,U10,6,Output*%
%TO.N,Net-(U10-Output)*%
X160505000Y-76162500D03*
%TD*%
D11*
%TO.P,U11,1,3V_in*%
%TO.N,Net-(U10-3V_out)*%
X160505000Y-86912500D03*
%TO.P,U11,2,G_out*%
%TO.N,Net-(U10-G_in)*%
X160505000Y-84912500D03*
%TO.P,U11,3,Input*%
%TO.N,Net-(U10-Output)*%
X160505000Y-82912500D03*
%TO.P,U11,4,3V_out*%
%TO.N,Net-(U11-3V_out)*%
X152755000Y-86912500D03*
%TO.P,U11,5,G_in*%
%TO.N,Net-(U11-G_in)*%
X152755000Y-84912500D03*
%TO.P,U11,6,Output*%
%TO.N,Net-(U11-Output)*%
X152755000Y-82912500D03*
%TD*%
%TO.P,U8,1,3V_in*%
%TO.N,Net-(U11-3V_out)*%
X144505000Y-86917500D03*
%TO.P,U8,2,G_out*%
%TO.N,Net-(U11-G_in)*%
X144505000Y-84917500D03*
%TO.P,U8,3,Input*%
%TO.N,Net-(U11-Output)*%
X144505000Y-82917500D03*
%TO.P,U8,4,3V_out*%
%TO.N,Net-(U5-3V_in)*%
X136755000Y-86917500D03*
%TO.P,U8,5,G_in*%
%TO.N,Net-(U5-G_out)*%
X136755000Y-84917500D03*
%TO.P,U8,6,Output*%
%TO.N,Net-(U5-Input)*%
X136755000Y-82917500D03*
%TD*%
D10*
%TO.P,U4,1,3V_in*%
%TO.N,+3V3*%
X120755000Y-72167500D03*
%TO.P,U4,2,G_out*%
%TO.N,/Sin*%
X120755000Y-74167500D03*
%TO.P,U4,3,Input*%
%TO.N,GND*%
X120755000Y-76167500D03*
%TO.P,U4,4,3V_out*%
%TO.N,Net-(U4-3V_out)*%
X128505000Y-72167500D03*
%TO.P,U4,5,G_in*%
%TO.N,Net-(U4-G_in)*%
X128505000Y-74167500D03*
%TO.P,U4,6,Output*%
%TO.N,Net-(U4-Output)*%
X128505000Y-76167500D03*
%TD*%
D12*
%TO.P,J1,1,Pin_1*%
%TO.N,+3V3*%
X130130000Y-79390000D03*
D13*
%TO.P,J1,2,Pin_2*%
%TO.N,/Sin*%
X132670000Y-79390000D03*
%TO.P,J1,3,Pin_3*%
%TO.N,GND*%
X135210000Y-79390000D03*
%TD*%
D14*
%TO.N,*%
X117570000Y-89041250D03*
X163570000Y-70041250D03*
X117570000Y-70041250D03*
X163570000Y-89041250D03*
D15*
%TO.N,/Sin*%
X119000000Y-79320000D03*
%TD*%
D16*
%TO.N,+3V3*%
X130040000Y-79390000D02*
X127168832Y-79390000D01*
X127168832Y-79390000D02*
X124530000Y-76751168D01*
X123337500Y-72167500D02*
X120755000Y-72167500D01*
X124530000Y-76751168D02*
X124530000Y-73360000D01*
X124530000Y-73360000D02*
X123337500Y-72167500D01*
%TO.N,/Sin*%
X119000000Y-79320000D02*
X116586000Y-76906000D01*
X116586000Y-75064000D02*
X117482500Y-74167500D01*
X116586000Y-76906000D02*
X116586000Y-75064000D01*
X117482500Y-74167500D02*
X120755000Y-74167500D01*
%TO.N,Net-(U4-Output)*%
X128505000Y-76167500D02*
X136755000Y-76167500D01*
%TO.N,Net-(U4-G_in)*%
X128505000Y-74167500D02*
X136755000Y-74167500D01*
%TO.N,Net-(U5-3V_in)*%
X136755000Y-86917500D02*
X128505000Y-86917500D01*
%TO.N,Net-(U4-3V_out)*%
X128505000Y-72167500D02*
X136755000Y-72167500D01*
%TO.N,Net-(U5-Input)*%
X136755000Y-82917500D02*
X128505000Y-82917500D01*
%TO.N,GND*%
X125496332Y-81767500D02*
X125475832Y-81788000D01*
X120755000Y-77575000D02*
X120755000Y-76167500D01*
X131534168Y-81788000D02*
X131513668Y-81767500D01*
X131513668Y-81767500D02*
X125496332Y-81767500D01*
X132812000Y-81788000D02*
X131534168Y-81788000D01*
X135210000Y-79390000D02*
X132812000Y-81788000D01*
X124968000Y-81788000D02*
X120755000Y-77575000D01*
X125475832Y-81788000D02*
X124968000Y-81788000D01*
%TO.N,Net-(U5-G_out)*%
X128505000Y-84917500D02*
X136755000Y-84917500D01*
%TO.N,Net-(U10-Input)*%
X144505000Y-76167500D02*
X152750000Y-76167500D01*
X152750000Y-76167500D02*
X152755000Y-76162500D01*
%TO.N,Net-(U10-G_out)*%
X144505000Y-74167500D02*
X152750000Y-74167500D01*
X152750000Y-74167500D02*
X152755000Y-74162500D01*
%TO.N,Net-(U10-3V_in)*%
X144505000Y-72167500D02*
X152750000Y-72167500D01*
X152750000Y-72167500D02*
X152755000Y-72162500D01*
%TO.N,Net-(U11-Output)*%
X144505000Y-82917500D02*
X152750000Y-82917500D01*
X152750000Y-82917500D02*
X152755000Y-82912500D01*
%TO.N,Net-(U11-G_in)*%
X144510000Y-84912500D02*
X144505000Y-84917500D01*
X152755000Y-84912500D02*
X144510000Y-84912500D01*
%TO.N,Net-(U11-3V_out)*%
X144505000Y-86917500D02*
X152750000Y-86917500D01*
X152750000Y-86917500D02*
X152755000Y-86912500D01*
%TO.N,Net-(U10-Output)*%
X160505000Y-76162500D02*
X160505000Y-82912500D01*
%TO.N,Net-(U10-G_in)*%
X157240000Y-84930000D02*
X157257500Y-84912500D01*
X160505000Y-74162500D02*
X157380001Y-74162500D01*
X157380001Y-74162500D02*
X156550000Y-74992501D01*
X156550000Y-74992501D02*
X156550000Y-84240000D01*
X156550000Y-84240000D02*
X157240000Y-84930000D01*
X157257500Y-84912500D02*
X160505000Y-84912500D01*
%TO.N,Net-(U10-3V_out)*%
X163629999Y-72162500D02*
X164430000Y-72962501D01*
X164430000Y-72962501D02*
X164430000Y-86112499D01*
X163629999Y-86912500D02*
X160505000Y-86912500D01*
X164430000Y-86112499D02*
X163629999Y-86912500D01*
X160505000Y-72162500D02*
X163629999Y-72162500D01*
%TD*%
M02*
