%TF.GenerationSoftware,KiCad,Pcbnew,7.0.9*%
%TF.CreationDate,2025-07-28T09:11:42-04:00*%
%TF.ProjectId,bb8DomeNeopixels,62623844-6f6d-4654-9e65-6f706978656c,rev?*%
%TF.SameCoordinates,Original*%
%TF.FileFunction,AssemblyDrawing,Bot*%
%FSLAX46Y46*%
G04 Gerber Fmt 4.6, Leading zero omitted, Abs format (unit mm)*
G04 Created by KiCad (PCBNEW 7.0.9) date 2025-07-28 09:11:42*
%MOMM*%
%LPD*%
G01*
G04 APERTURE LIST*
%ADD10C,0.150000*%
%ADD11C,0.100000*%
G04 APERTURE END LIST*
D10*
X137899580Y-75651904D02*
X137947200Y-75604285D01*
X137947200Y-75604285D02*
X137994819Y-75461428D01*
X137994819Y-75461428D02*
X137994819Y-75366190D01*
X137994819Y-75366190D02*
X137947200Y-75223333D01*
X137947200Y-75223333D02*
X137851961Y-75128095D01*
X137851961Y-75128095D02*
X137756723Y-75080476D01*
X137756723Y-75080476D02*
X137566247Y-75032857D01*
X137566247Y-75032857D02*
X137423390Y-75032857D01*
X137423390Y-75032857D02*
X137232914Y-75080476D01*
X137232914Y-75080476D02*
X137137676Y-75128095D01*
X137137676Y-75128095D02*
X137042438Y-75223333D01*
X137042438Y-75223333D02*
X136994819Y-75366190D01*
X136994819Y-75366190D02*
X136994819Y-75461428D01*
X136994819Y-75461428D02*
X137042438Y-75604285D01*
X137042438Y-75604285D02*
X137090057Y-75651904D01*
X137994819Y-76223333D02*
X137947200Y-76128095D01*
X137947200Y-76128095D02*
X137899580Y-76080476D01*
X137899580Y-76080476D02*
X137804342Y-76032857D01*
X137804342Y-76032857D02*
X137518628Y-76032857D01*
X137518628Y-76032857D02*
X137423390Y-76080476D01*
X137423390Y-76080476D02*
X137375771Y-76128095D01*
X137375771Y-76128095D02*
X137328152Y-76223333D01*
X137328152Y-76223333D02*
X137328152Y-76366190D01*
X137328152Y-76366190D02*
X137375771Y-76461428D01*
X137375771Y-76461428D02*
X137423390Y-76509047D01*
X137423390Y-76509047D02*
X137518628Y-76556666D01*
X137518628Y-76556666D02*
X137804342Y-76556666D01*
X137804342Y-76556666D02*
X137899580Y-76509047D01*
X137899580Y-76509047D02*
X137947200Y-76461428D01*
X137947200Y-76461428D02*
X137994819Y-76366190D01*
X137994819Y-76366190D02*
X137994819Y-76223333D01*
X137328152Y-76985238D02*
X137994819Y-76985238D01*
X137423390Y-76985238D02*
X137375771Y-77032857D01*
X137375771Y-77032857D02*
X137328152Y-77128095D01*
X137328152Y-77128095D02*
X137328152Y-77270952D01*
X137328152Y-77270952D02*
X137375771Y-77366190D01*
X137375771Y-77366190D02*
X137471009Y-77413809D01*
X137471009Y-77413809D02*
X137994819Y-77413809D01*
X137328152Y-77890000D02*
X137994819Y-77890000D01*
X137423390Y-77890000D02*
X137375771Y-77937619D01*
X137375771Y-77937619D02*
X137328152Y-78032857D01*
X137328152Y-78032857D02*
X137328152Y-78175714D01*
X137328152Y-78175714D02*
X137375771Y-78270952D01*
X137375771Y-78270952D02*
X137471009Y-78318571D01*
X137471009Y-78318571D02*
X137994819Y-78318571D01*
X138090057Y-78556667D02*
X138090057Y-79318571D01*
X136994819Y-79747143D02*
X136994819Y-79842381D01*
X136994819Y-79842381D02*
X137042438Y-79937619D01*
X137042438Y-79937619D02*
X137090057Y-79985238D01*
X137090057Y-79985238D02*
X137185295Y-80032857D01*
X137185295Y-80032857D02*
X137375771Y-80080476D01*
X137375771Y-80080476D02*
X137613866Y-80080476D01*
X137613866Y-80080476D02*
X137804342Y-80032857D01*
X137804342Y-80032857D02*
X137899580Y-79985238D01*
X137899580Y-79985238D02*
X137947200Y-79937619D01*
X137947200Y-79937619D02*
X137994819Y-79842381D01*
X137994819Y-79842381D02*
X137994819Y-79747143D01*
X137994819Y-79747143D02*
X137947200Y-79651905D01*
X137947200Y-79651905D02*
X137899580Y-79604286D01*
X137899580Y-79604286D02*
X137804342Y-79556667D01*
X137804342Y-79556667D02*
X137613866Y-79509048D01*
X137613866Y-79509048D02*
X137375771Y-79509048D01*
X137375771Y-79509048D02*
X137185295Y-79556667D01*
X137185295Y-79556667D02*
X137090057Y-79604286D01*
X137090057Y-79604286D02*
X137042438Y-79651905D01*
X137042438Y-79651905D02*
X136994819Y-79747143D01*
X137994819Y-81032857D02*
X137994819Y-80461429D01*
X137994819Y-80747143D02*
X136994819Y-80747143D01*
X136994819Y-80747143D02*
X137137676Y-80651905D01*
X137137676Y-80651905D02*
X137232914Y-80556667D01*
X137232914Y-80556667D02*
X137280533Y-80461429D01*
X137994819Y-81366191D02*
X137328152Y-81890000D01*
X137328152Y-81366191D02*
X137994819Y-81890000D01*
X136994819Y-82461429D02*
X136994819Y-82556667D01*
X136994819Y-82556667D02*
X137042438Y-82651905D01*
X137042438Y-82651905D02*
X137090057Y-82699524D01*
X137090057Y-82699524D02*
X137185295Y-82747143D01*
X137185295Y-82747143D02*
X137375771Y-82794762D01*
X137375771Y-82794762D02*
X137613866Y-82794762D01*
X137613866Y-82794762D02*
X137804342Y-82747143D01*
X137804342Y-82747143D02*
X137899580Y-82699524D01*
X137899580Y-82699524D02*
X137947200Y-82651905D01*
X137947200Y-82651905D02*
X137994819Y-82556667D01*
X137994819Y-82556667D02*
X137994819Y-82461429D01*
X137994819Y-82461429D02*
X137947200Y-82366191D01*
X137947200Y-82366191D02*
X137899580Y-82318572D01*
X137899580Y-82318572D02*
X137804342Y-82270953D01*
X137804342Y-82270953D02*
X137613866Y-82223334D01*
X137613866Y-82223334D02*
X137375771Y-82223334D01*
X137375771Y-82223334D02*
X137185295Y-82270953D01*
X137185295Y-82270953D02*
X137090057Y-82318572D01*
X137090057Y-82318572D02*
X137042438Y-82366191D01*
X137042438Y-82366191D02*
X136994819Y-82461429D01*
X136994819Y-83128096D02*
X136994819Y-83747143D01*
X136994819Y-83747143D02*
X137375771Y-83413810D01*
X137375771Y-83413810D02*
X137375771Y-83556667D01*
X137375771Y-83556667D02*
X137423390Y-83651905D01*
X137423390Y-83651905D02*
X137471009Y-83699524D01*
X137471009Y-83699524D02*
X137566247Y-83747143D01*
X137566247Y-83747143D02*
X137804342Y-83747143D01*
X137804342Y-83747143D02*
X137899580Y-83699524D01*
X137899580Y-83699524D02*
X137947200Y-83651905D01*
X137947200Y-83651905D02*
X137994819Y-83556667D01*
X137994819Y-83556667D02*
X137994819Y-83270953D01*
X137994819Y-83270953D02*
X137947200Y-83175715D01*
X137947200Y-83175715D02*
X137899580Y-83128096D01*
X133003333Y-78844819D02*
X133003333Y-79559104D01*
X133003333Y-79559104D02*
X133050952Y-79701961D01*
X133050952Y-79701961D02*
X133146190Y-79797200D01*
X133146190Y-79797200D02*
X133289047Y-79844819D01*
X133289047Y-79844819D02*
X133384285Y-79844819D01*
X132003333Y-79844819D02*
X132574761Y-79844819D01*
X132289047Y-79844819D02*
X132289047Y-78844819D01*
X132289047Y-78844819D02*
X132384285Y-78987676D01*
X132384285Y-78987676D02*
X132479523Y-79082914D01*
X132479523Y-79082914D02*
X132574761Y-79130533D01*
D11*
%TO.C,J1*%
X136480000Y-78120000D02*
X129495000Y-78120000D01*
X129495000Y-78120000D02*
X128860000Y-78755000D01*
X128860000Y-78755000D02*
X128860000Y-80660000D01*
X136480000Y-80660000D02*
X136480000Y-78120000D01*
X128860000Y-80660000D02*
X136480000Y-80660000D01*
%TD*%
M02*
